<?xml version="1.0" encoding="utf-8"?>
<!-- Generator: Adobe Illustrator 16.0.0, SVG Export Plug-In . SVG Version: 6.00 Build 0)  -->
<!DOCTYPE svg PUBLIC "-//W3C//DTD SVG 1.1//EN" "http://www.w3.org/Graphics/SVG/1.1/DTD/svg11.dtd">
<svg version="1.1" id="Layer_1" xmlns="http://www.w3.org/2000/svg" xmlns:xlink="http://www.w3.org/1999/xlink" x="0px" y="0px"
	 width="380px" height="481.052px" viewBox="0 0 380 481.052" enable-background="new 0 0 380 481.052" xml:space="preserve">
<g>
	<g>
		<g>
			
				<line fill-rule="evenodd" clip-rule="evenodd" fill="none" stroke="#7D868C" stroke-width="1.0299" stroke-miterlimit="22.9256" x1="186.142" y1="66.44" x2="292.229" y2="66.44"/>
			
				<line fill-rule="evenodd" clip-rule="evenodd" fill="none" stroke="#7D868C" stroke-width="1.0299" stroke-miterlimit="22.9256" x1="186.142" y1="214.875" x2="292.229" y2="214.875"/>
			
				<line fill-rule="evenodd" clip-rule="evenodd" fill="none" stroke="#7D868C" stroke-width="1.0299" stroke-miterlimit="22.9256" x1="279.978" y1="180.772" x2="279.978" y2="231.956"/>
			
				<line fill-rule="evenodd" clip-rule="evenodd" fill="none" stroke="#7D868C" stroke-width="1.0299" stroke-miterlimit="22.9256" x1="286.042" y1="59.214" x2="273.915" y2="73.667"/>
			
				<line fill-rule="evenodd" clip-rule="evenodd" fill="none" stroke="#7D868C" stroke-width="1.0299" stroke-miterlimit="22.9256" x1="286.042" y1="207.648" x2="273.915" y2="222.102"/>
			
				<line fill-rule="evenodd" clip-rule="evenodd" fill="none" stroke="#7D868C" stroke-width="1.0299" stroke-miterlimit="22.9256" x1="279.978" y1="51.265" x2="279.978" y2="103.826"/>
		</g>
		<g>
			
				<line fill-rule="evenodd" clip-rule="evenodd" fill="none" stroke="#7D868C" stroke-width="1.0299" stroke-miterlimit="22.9256" x1="238.444" y1="118.74" x2="238.444" y2="264.834"/>
			
				<line fill-rule="evenodd" clip-rule="evenodd" fill="none" stroke="#7D868C" stroke-width="1.0299" stroke-miterlimit="22.9256" x1="133.839" y1="118.74" x2="133.839" y2="264.834"/>
			
				<line fill-rule="evenodd" clip-rule="evenodd" fill="none" stroke="#7D868C" stroke-width="1.0299" stroke-miterlimit="22.9256" x1="253.618" y1="252.582" x2="221.709" y2="252.582"/>
			
				<line fill-rule="evenodd" clip-rule="evenodd" fill="none" stroke="#7D868C" stroke-width="1.0299" stroke-miterlimit="22.9256" x1="245.669" y1="258.647" x2="231.216" y2="246.519"/>
			
				<line fill-rule="evenodd" clip-rule="evenodd" fill="none" stroke="#7D868C" stroke-width="1.0299" stroke-miterlimit="22.9256" x1="141.067" y1="258.647" x2="126.612" y2="246.519"/>
			
				<line fill-rule="evenodd" clip-rule="evenodd" fill="none" stroke="#7D868C" stroke-width="1.0299" stroke-miterlimit="22.9256" x1="148.582" y1="252.582" x2="117.008" y2="252.582"/>
		</g>
		<g>
			<path fill="#7D868C" d="M130.668,93.631l5.434-6.607l3.29,8.241L130.668,93.631L130.668,93.631z M106.339,67.045l28.087,23.08
				l-1.039,1.264L105.3,68.31l0.522-1.451L106.339,67.045L106.339,67.045z M105.822,66.858h0.288l0.229,0.187L105.822,66.858
				L105.822,66.858z M38.69,66.858h67.132v1.638H38.69V66.858z"/>
		</g>
		<rect x="42.008" y="45.818" fill-rule="evenodd" clip-rule="evenodd" fill="#FF8300" width="58.856" height="11.264"/>
		<rect x="154.804" y="250.762" fill-rule="evenodd" clip-rule="evenodd" fill="#7D868C" width="58.856" height="3.566"/>
		<rect x="278.194" y="112.183" fill-rule="evenodd" clip-rule="evenodd" fill="#7D868C" width="3.566" height="58.856"/>
		<g>
			<path fill="#7D868C" d="M164.104,206.248l-4.52-7.265l8.863-0.474L164.104,206.248L164.104,206.248z M107.778,235.282
				l54.206-33.718l0.865,1.39l-54.208,33.719l-0.432,0.123L107.778,235.282L107.778,235.282z M108.642,236.673l-0.197,0.123h-0.234
				L108.642,236.673L108.642,236.673z M32.794,235.158h75.416v1.638H32.794V235.158z"/>
		</g>
		<rect x="34.33" y="215.368" fill-rule="evenodd" clip-rule="evenodd" fill="#1CCFC9" width="58.857" height="11.264"/>
		<g>
			<path fill="#7D868C" d="M204.891,85.453l6.866,5.099l-8.067,3.692L204.891,85.453L204.891,85.453z M251.7,30.952l-43.122,58.079
				l-1.314-0.977l43.122-58.077l0.656-0.332L251.7,30.952L251.7,30.952z M250.386,29.978l0.247-0.332h0.409L250.386,29.978
				L250.386,29.978z M318.169,31.282h-67.127v-1.637h67.127V31.282z"/>
		</g>
		<rect x="255.794" y="9.913" fill-rule="evenodd" clip-rule="evenodd" fill="#E70095" width="58.856" height="11.263"/>
		<g>
			<path fill="#7D868C" d="M204.63,157.013l-6.698,5.323l-1.492-8.749L204.63,157.013L204.63,157.013z M271.704,249.597
				l-71.485-89.941l1.282-1.018l71.483,89.94l-0.64,1.328L271.704,249.597L271.704,249.597z M272.345,249.906h-0.397l-0.243-0.31
				L272.345,249.906L272.345,249.906z M350.048,249.906h-77.703v-1.636h77.703V249.906z"/>
		</g>
		<g>
			<path fill-rule="evenodd" clip-rule="evenodd" fill="none" stroke="#FF8300" stroke-width="2.575" stroke-miterlimit="10" d="
				M186.142,66.44c28.884,0,52.303,23.415,52.303,52.3c0,13.819-5.361,26.385-14.118,35.733l0.002,0.007
				c-8.998,10.698-20.494,20.943-20.494,33.854c0,12.904-17.681,13.271-17.692,13.271l0,0c-0.015,0-17.693-0.366-17.693-13.271
				c0-12.911-11.494-23.156-20.492-33.854v-0.007c-8.756-9.35-14.117-21.914-14.117-35.733
				C133.839,89.855,157.255,66.44,186.142,66.44z"/>
			<path fill="#FF8300" d="M203.702,94.244c3.156,0.006,5.321,2.497,6.202,6.053c0.354,1.437,0.496,3.067,0.4,4.755
				c-0.095,1.673-0.425,3.413-1.015,5.087c-0.424,1.196-0.975,2.362-1.662,3.453c1.417,0.873,3.138,1.515,5.181,1.81
				c1.335,0.189,2.269,1.428,2.075,2.767c-0.059,0.413-0.217,0.787-0.449,1.103l-10.732,15.213V126l4.692-6.651
				c-1.536-0.535-2.896-1.236-4.096-2.063c-0.191,0.15-0.394,0.296-0.597,0.438v-8.116c0.094,0.158,0.193,0.315,0.295,0.47
				c0.265-0.507,0.493-1.031,0.681-1.566c0.433-1.233,0.678-2.508,0.749-3.728c0.063-1.204-0.032-2.343-0.27-3.318
				c-0.335-1.354-0.864-2.307-1.455-2.32V94.244z M186.142,94.244c3.166,0,5.333,2.493,6.213,6.053
				c0.357,1.438,0.498,3.068,0.4,4.755c-0.093,1.673-0.424,3.413-1.011,5.087c-0.496,1.396-1.166,2.751-2.021,3.989
				c1.412,0.779,3.129,1.243,5.191,1.243c2.331,0,4.224-0.596,5.729-1.563c-1.105-1.436-1.933-3.008-2.518-4.604
				c-0.688-1.886-1.024-3.825-1.049-5.634c-0.024-1.877,0.285-3.629,0.885-5.063c1.085-2.591,3.053-4.264,5.728-4.264h0.013v4.9
				h-0.013c-0.471,0-0.896,0.487-1.213,1.241c-0.352,0.846-0.535,1.929-0.517,3.129c0.019,1.269,0.259,2.652,0.76,4.025
				c0.258,0.704,0.582,1.397,0.982,2.067v8.116c-2.268,1.569-5.17,2.548-8.787,2.548c-3.608,0-6.509-0.974-8.773-2.538v-7.109
				c0.401-0.673,0.731-1.384,0.986-2.113c0.438-1.233,0.678-2.509,0.749-3.728c0.067-1.204-0.027-2.343-0.27-3.32
				c-0.335-1.363-0.868-2.318-1.466-2.318V94.244L186.142,94.244z M203.702,134.483l-7.224,10.239v53.787
				c0,1.352-1.096,2.449-2.449,2.449s-2.45-1.098-2.45-2.449v-54.556h0.006c0-0.488,0.145-0.98,0.444-1.407L203.702,126V134.483z
				 M180.7,198.51c0,1.352-1.096,2.449-2.446,2.449c-1.354,0-2.448-1.098-2.448-2.449v-53.787l-7.227-10.239V126l11.586,16.423
				c0.337,0.419,0.535,0.951,0.535,1.531V198.51L180.7,198.51z M168.579,94.244h0.016c2.675,0,4.64,1.673,5.727,4.264
				c0.599,1.435,0.91,3.188,0.884,5.063c-0.025,1.809-0.359,3.748-1.049,5.634c-0.585,1.596-1.413,3.165-2.52,4.604
				c1.508,0.967,3.4,1.563,5.731,1.563c2.062,0,3.782-0.464,5.19-1.243c-0.856-1.238-1.525-2.594-2.018-3.989
				c-0.59-1.674-0.919-3.414-1.017-5.087c-0.095-1.687,0.048-3.317,0.404-4.755c0.88-3.56,3.046-6.053,6.213-6.053v4.9
				c-0.601,0-1.132,0.955-1.467,2.32c-0.242,0.976-0.338,2.115-0.27,3.318c0.071,1.219,0.311,2.494,0.747,3.728
				c0.257,0.729,0.587,1.44,0.989,2.113v7.109c-2.268,1.564-5.164,2.538-8.773,2.538c-3.618,0-6.52-0.978-8.789-2.547v-8.117
				c0.401-0.67,0.728-1.364,0.981-2.067c0.503-1.373,0.748-2.757,0.764-4.025c0.016-1.2-0.168-2.283-0.522-3.129
				c-0.313-0.754-0.738-1.241-1.207-1.241h-0.016V94.244z M168.579,134.483l-10.761-15.254c-0.777-1.105-0.512-2.632,0.594-3.408
				c0.332-0.231,0.7-0.371,1.075-0.423c2.034-0.294,3.75-0.936,5.17-1.807c-0.689-1.091-1.243-2.257-1.665-3.453
				c-0.588-1.674-0.918-3.414-1.017-5.087c-0.096-1.687,0.052-3.317,0.402-4.755c0.88-3.556,3.045-6.047,6.201-6.053v4.9
				c-0.593,0.014-1.12,0.967-1.452,2.32c-0.242,0.976-0.337,2.115-0.271,3.318c0.07,1.22,0.313,2.495,0.75,3.728
				c0.186,0.535,0.413,1.06,0.681,1.566c0.103-0.154,0.2-0.312,0.292-0.47v8.117c-0.202-0.142-0.402-0.288-0.596-0.438
				c-1.201,0.826-2.561,1.527-4.095,2.063l4.69,6.651V134.483z"/>
			<path fill-rule="evenodd" clip-rule="evenodd" fill="#FF8300" d="M203.834,188.335v20.347c0,3.405-2.788,6.193-6.191,6.193
				h-23.002c-3.404,0-6.192-2.788-6.192-6.193v-20.347H203.834z"/>
		</g>
		<g>
			<path fill="#7D868C" d="M204.891,85.453l6.866,5.099l-8.067,3.692L204.891,85.453L204.891,85.453z M217.805,76.604l-9.227,12.427
				l-1.314-0.977l9.227-12.427L217.805,76.604z"/>
		</g>
		<g>
			<path fill="#7D868C" d="M204.63,157.013l-6.698,5.323l-1.492-8.749L204.63,157.013L204.63,157.013z M209.706,171.591
				l-9.487-11.936l1.282-1.018l9.484,11.935L209.706,171.591z"/>
		</g>
		<rect x="290.066" y="231.953" fill-rule="evenodd" clip-rule="evenodd" fill="#00B3E3" width="58.856" height="11.265"/>
		
			<path fill-rule="evenodd" clip-rule="evenodd" fill="none" stroke="#FFFFFF" stroke-width="1.0299" stroke-miterlimit="22.9256" d="
			M136.367,47.676c4.184,0,7.599-3.413,7.599-7.598c0-4.187-3.415-7.6-7.599-7.6c-4.187,0-7.6,3.413-7.6,7.6
			C128.768,44.263,132.181,47.676,136.367,47.676z"/>
		<g>
			<path fill="#7D868C" d="M121.869,33.509l5.43-6.609l3.294,8.242L121.869,33.509L121.869,33.509z M97.539,6.921l28.084,23.08
				l-1.038,1.264L96.498,8.186L97.539,6.921z"/>
		</g>
		<g>
			<path fill="#7D868C" d="M151.055,46.418l-5.436,6.609l-3.29-8.241L151.055,46.418L151.055,46.418z M171.438,69.763
				l-24.142-19.837l1.039-1.264l24.142,19.837L171.438,69.763z"/>
		</g>
		
			<rect x="104.03" y="11.229" transform="matrix(-0.7727 -0.6348 0.6348 -0.7727 195.211 95.9319)" fill-rule="evenodd" clip-rule="evenodd" fill="#7D868C" width="21.503" height="3.568"/>
	</g>
	<g>
		<g>
			<g>
				<path fill="#F9D690" d="M296.219,349.943c-5.701-0.994-8.061-9.424-9.033-16.688c7.188-5.063,13.684-15.979,13.684-26.506
					c0-16.869-9.629-24.537-21.499-24.537c-11.876,0-21.497,7.668-21.497,24.537c0,9.592,6.46,21.014,13.699,26.363
					c-0.961,7.293-3.319,15.83-9.053,16.83c-19.059,3.328-27.324,1.924-27.324,19.842v84.094h88.34v-84.094
					C323.535,351.867,315.273,353.271,296.219,349.943z"/>
				<path fill="#FFE2A1" d="M287.186,333.256c7.188-5.063,13.684-15.979,13.684-26.506c0-16.869-9.629-24.537-21.499-24.537
					c-11.876,0-21.497,7.668-21.497,24.537c0,9.592,6.46,21.014,13.699,26.363C277.057,337.084,281.884,337.039,287.186,333.256z"/>
				<path fill="none" stroke="#545554" stroke-width="0.4807" stroke-miterlimit="10" d="M260.18,350.424"/>
				<path fill="none" d="M296.219,349.943c-5.701-0.994-8.061-9.424-9.033-16.688c7.188-5.063,13.684-15.979,13.684-26.506
					c0-16.869-9.629-24.537-21.499-24.537c-11.876,0-21.497,7.668-21.497,24.537c0,9.592,6.46,21.014,13.699,26.363
					c-0.961,7.293-3.319,15.83-9.053,16.83c-19.059,3.328-27.324,1.924-27.324,19.842h41.269h0.261h5.287h0.27h41.254
					C323.535,351.867,315.273,353.271,296.219,349.943z"/>
				<g>
					<path fill="#724524" d="M282.12,270.813c-2.62,0.63-6.109,2.265-6.109,2.265s-4.859-1.421-9.359-0.295
						c-5.912,1.478-20.491,5.552-20.491,30.908c0,19.059,4.265,28.477,7.941,39.09c6.078,0.455,12.096-0.189,15.258,0
						c1.18-2.973,1.9-6.488,2.33-9.762c0,0-0.001-0.004-0.001-0.006c-0.412-0.305-0.821-0.635-1.228-0.977
						c-0.152-0.125-0.297-0.262-0.448-0.393l0,0c-0.269-0.242-0.538-0.484-0.809-0.742l0,0c-0.168-0.158-0.33-0.326-0.497-0.486
						v-0.004c-0.238-0.236-0.469-0.475-0.704-0.723l0,0c-0.172-0.186-0.349-0.379-0.521-0.57c-0.213-0.242-0.427-0.486-0.641-0.738
						l0,0c-0.177-0.209-0.352-0.416-0.521-0.633l0,0c-0.203-0.246-0.399-0.504-0.597-0.758v-0.004
						c-0.174-0.227-0.346-0.447-0.52-0.68l0,0c-0.186-0.266-0.377-0.535-0.564-0.807c0,0,0-0.002-0.002-0.002
						c-0.407-0.59-0.806-1.197-1.187-1.816c-0.054-0.09-0.116-0.176-0.167-0.264l0,0c-0.114-0.189-0.224-0.379-0.334-0.57
						c-0.188-0.318-0.366-0.639-0.547-0.961c-0.126-0.236-0.257-0.479-0.384-0.723c-0.192-0.361-0.369-0.727-0.555-1.1
						c-0.086-0.184-0.18-0.369-0.266-0.555c-0.207-0.451-0.402-0.9-0.594-1.354c-0.077-0.176-0.148-0.352-0.222-0.527
						c-0.188-0.475-0.373-0.953-0.543-1.432c-0.045-0.139-0.088-0.275-0.138-0.412c-0.161-0.479-0.319-0.949-0.456-1.426
						c-0.022-0.088-0.052-0.176-0.079-0.262c-0.145-0.521-0.275-1.041-0.393-1.557c-0.028-0.113-0.058-0.221-0.077-0.33
						c-0.117-0.527-0.213-1.053-0.302-1.576c-0.012-0.107-0.029-0.215-0.048-0.324c-0.077-0.535-0.14-1.063-0.183-1.59
						c-0.007-0.08-0.013-0.16-0.02-0.242c-0.04-0.553-0.066-1.107-0.066-1.65c0-1.953,0.135-3.773,0.385-5.48
						c0.875-3.918,11.307-15.299,11.307-15.299s9.6,18.889,30.675,15.539c0.303-0.049,0.252,2.473,0.258,2.543
						c0,0.002,0,0.008,0,0.008c0.055,0.871,0.089,1.766,0.089,2.689c0,10.459-6.447,21.301-13.593,26.332
						c0.399,2.961,1.033,6.109,2.029,8.873c3.969,0.213,7.289,0.748,14.669,0.748c2.862-6.688,5.142-12.518,7.666-27.143
						C317.228,282.847,303.916,265.565,282.12,270.813z"/>
				</g>
				<path fill="#FF8300" d="M297.201,350.111c-7.87,9.828-25.028,12.881-35.667,0c-18.346,3.113-26.339,2.068-26.339,19.674v84.094
					h88.34v-84.094C323.535,352.182,315.551,353.225,297.201,350.111z"/>
			</g>
			<path fill="#FFFFFF" d="M289.834,364.506l-10.626-4.916l-10.587,4.916l-7.564-14.66c1.151-0.42,2.099-1.402,2.893-2.727
				c15.259,11.07,15.259,11.07,15.259,11.07s0,0,15.294-11.006c0.796,1.305,1.744,2.271,2.894,2.676L289.834,364.506z"/>
		</g>
	</g>
	<g>
		<g>
			<g>
				<path fill="#FFD5A1" d="M170.18,349.945c5.7-0.996,8.068-9.426,9.036-16.688c-7.187-5.064-13.679-15.979-13.679-26.508
					c0-16.869,9.623-24.537,21.493-24.537c11.873,0,21.499,7.668,21.499,24.537c0,9.592-6.464,21.014-13.703,26.363
					c0.961,7.293,3.32,15.83,9.055,16.832c19.056,3.33,27.32,1.922,27.32,19.84v84.094h-88.342v-84.094
					C142.859,351.867,151.126,353.275,170.18,349.945z"/>
				<path fill="#FFE0B2" d="M179.216,333.258c-7.187-5.064-13.679-15.979-13.679-26.508c0-16.869,9.623-24.537,21.493-24.537
					c11.873,0,21.499,7.668,21.499,24.537c0,9.592-6.464,21.014-13.703,26.363C189.345,337.084,184.514,337.041,179.216,333.258z"/>
				<path fill="none" d="M170.18,349.945c5.7-0.996,8.068-9.426,9.036-16.688c-7.187-5.064-13.679-15.979-13.679-26.508
					c0-16.869,9.623-24.537,21.493-24.537c11.873,0,21.499,7.668,21.499,24.537c0,9.592-6.464,21.014-13.703,26.363
					c0.967,7.293,3.32,15.83,9.055,16.832c19.056,3.33,27.32,1.922,27.32,19.84h-41.258h-0.27h-5.286h-0.268h-41.261
					C142.859,351.867,151.126,353.275,170.18,349.945z"/>
				<path fill="#6CC04A" d="M169.377,350.082c2.994,6.064,16.455,29.016,16.455,29.016s13.687-23.104,16.613-29.348
					c0.549,0.059,1.036,0.125,1.436,0.195c19.056,3.33,27.32,1.922,27.32,19.84v84.094h-88.342v-84.094
					C142.859,352.123,150.903,353.23,169.377,350.082z"/>
				<path fill="#231F20" d="M178.565,272.692c0.041-0.013,0.074-0.023,0.116-0.035c0.354-0.1,0.698-0.199,1.049-0.287
					c0.256-0.066,0.514-0.126,0.769-0.188c0.161-0.035,0.315-0.071,0.472-0.108c0.383-0.079,0.757-0.155,1.132-0.224
					c0.134-0.02,0.251-0.045,0.38-0.064c0.223-0.038,0.448-0.071,0.674-0.105c0.298-0.042,0.593-0.081,0.888-0.112
					c0.166-0.019,0.331-0.037,0.494-0.05c0.351-0.037,0.702-0.062,1.049-0.083c0.083-0.005,0.155-0.007,0.245-0.013
					c0.406-0.019,0.807-0.028,1.211-0.028c2.189,0,3.884,1.429,3.884,1.429s2.582-0.614,5.753,0.427
					c5.043,1.651,19.232,9.696,19.232,31.749c0,21.279-14.818,48.633-26.188,57.572c3.605-5.916,6.531-11.313,8.713-16.732
					c-2.048-3.322-3.146-8.158-3.728-12.543c3.085-2.283,6.026-5.691,8.369-9.588c3.692-18.893-0.253-29.443-13.791-40.364
					c-4.771,9.956-16.516,18.03-22.969,18.487c-0.259,1.729-0.394,3.58-0.394,5.564c0,10.344,6.368,21.066,13.441,26.045
					c-0.96,7.137-3.281,15.42-8.874,16.396c-2.795,0.486-5.332,0.881-7.653,1.26c0.566-1.199,1.106-2.49,1.581-3.881
					c3.313-9.744-3.188-16.629-6.245-32.385C153.454,290.5,164.144,276.961,178.565,272.692z"/>
			</g>
		</g>
	</g>
	<g>
		<g>
			<g>
				<path fill="#F9D690" d="M111.23,349.943c-5.703-0.994-8.058-9.424-9.032-16.688c7.189-5.063,13.684-15.979,13.684-26.506
					c0-16.869-9.627-24.537-21.501-24.537c-11.873,0-21.498,7.668-21.498,24.537c0,9.592,6.463,21.014,13.705,26.363
					c-0.965,7.293-3.315,15.83-9.053,16.83c-19.061,3.328-27.325,1.924-27.325,19.842v84.094h88.34v-84.094
					C138.55,351.867,130.287,353.271,111.23,349.943z"/>
				<path fill="#FFE2A1" d="M102.198,333.256c7.189-5.063,13.684-15.979,13.684-26.506c0-16.869-9.627-24.537-21.501-24.537
					c-11.873,0-21.498,7.668-21.498,24.537c0,9.592,6.463,21.014,13.705,26.363C92.07,337.084,96.896,337.039,102.198,333.256z"/>
				<path fill="none" stroke="#545554" stroke-width="0.4807" stroke-miterlimit="10" d="M75.189,350.424"/>
				<path fill="none" d="M111.23,349.943c-5.703-0.994-8.058-9.424-9.032-16.688c7.189-5.063,13.684-15.979,13.684-26.506
					c0-16.869-9.627-24.537-21.501-24.537c-11.873,0-21.498,7.668-21.498,24.537c0,9.592,6.463,21.014,13.705,26.363
					c-0.965,7.293-3.315,15.83-9.053,16.83c-19.061,3.328-27.325,1.924-27.325,19.842h41.261h0.268h5.287h0.263h41.262
					C138.55,351.867,130.287,353.271,111.23,349.943z"/>
				<g>
					<path fill="#3B2314" d="M97.135,270.813c-2.622,0.63-6.111,2.265-6.111,2.265s-4.857-1.421-9.361-0.295
						c-5.916,1.478-20.496,5.552-20.496,30.908c0,19.059,4.271,28.477,7.948,39.09c6.075,0.455,12.095-0.189,15.257,0
						c1.181-2.973,1.898-6.488,2.331-9.762c0,0,0-0.004,0-0.006c-0.415-0.305-0.825-0.635-1.231-0.977
						c-0.147-0.125-0.295-0.262-0.443-0.393l0,0c-0.271-0.242-0.545-0.484-0.818-0.742l0,0c-0.161-0.158-0.324-0.326-0.488-0.486
						v-0.004c-0.238-0.236-0.473-0.475-0.706-0.723l0,0c-0.172-0.186-0.346-0.379-0.52-0.57c-0.214-0.242-0.43-0.486-0.643-0.738
						l0,0c-0.172-0.209-0.354-0.416-0.522-0.633l0,0c-0.203-0.246-0.4-0.504-0.599-0.758v-0.004
						c-0.173-0.227-0.347-0.447-0.514-0.68l0,0c-0.194-0.266-0.379-0.535-0.564-0.807c0,0,0-0.002-0.003-0.002
						c-0.411-0.59-0.809-1.197-1.188-1.816c-0.055-0.09-0.113-0.176-0.168-0.264l0,0c-0.11-0.189-0.222-0.379-0.332-0.57
						c-0.188-0.318-0.366-0.639-0.546-0.961c-0.129-0.236-0.256-0.479-0.388-0.723c-0.188-0.361-0.373-0.727-0.552-1.1
						c-0.091-0.184-0.178-0.369-0.268-0.555c-0.205-0.451-0.406-0.9-0.6-1.354c-0.069-0.176-0.139-0.352-0.21-0.527
						c-0.191-0.475-0.379-0.953-0.544-1.432c-0.049-0.139-0.095-0.275-0.144-0.412c-0.166-0.479-0.315-0.949-0.452-1.426
						c-0.027-0.088-0.054-0.176-0.079-0.262c-0.146-0.521-0.275-1.041-0.396-1.557c-0.021-0.113-0.054-0.221-0.075-0.33
						c-0.117-0.527-0.215-1.053-0.303-1.576c-0.013-0.107-0.031-0.215-0.049-0.324c-0.077-0.535-0.136-1.063-0.185-1.59
						c-0.006-0.08-0.014-0.16-0.017-0.242c-0.041-0.553-0.07-1.107-0.07-1.65c0-1.953,0.139-3.773,0.384-5.48
						c0.881-3.918,11.313-15.299,11.313-15.299s9.597,18.889,30.671,15.539c0.308-0.049,0.253,2.473,0.261,2.543
						c0,0.002,0,0.008,0,0.008c0.056,0.871,0.089,1.766,0.089,2.689c0,10.459-6.451,21.301-13.593,26.332
						c0.397,2.961,1.03,6.109,2.028,8.873c3.97,0.213,7.286,0.748,14.668,0.748c2.864-6.688,5.144-12.518,7.667-27.143
						C132.235,282.847,118.931,265.565,97.135,270.813z"/>
				</g>
				<path fill="#00B3E3" d="M112.216,350.111c-7.878,9.828-25.029,12.881-35.667,0c-18.351,3.113-26.339,2.068-26.339,19.674v84.094
					h88.34v-84.094C138.55,352.182,130.56,353.225,112.216,350.111z"/>
			</g>
			<path fill="#FFFFFF" d="M104.847,364.506l-10.624-4.916l-10.591,4.916l-7.563-14.66c1.147-0.42,2.101-1.402,2.892-2.727
				c15.262,11.07,15.262,11.07,15.262,11.07s0,0,15.292-11.006c0.798,1.305,1.745,2.271,2.891,2.676L104.847,364.506z"/>
		</g>
	</g>
	<g>
		<g>
			<g>
				<path fill="#F9D690" d="M347.682,412.488c-5.703-0.994-8.06-9.426-9.039-16.686c7.191-5.068,13.686-15.98,13.686-26.508
					c0-16.871-9.627-24.539-21.494-24.539c-11.876,0-21.499,7.668-21.499,24.539c0,9.594,6.464,21.014,13.7,26.363
					c-0.963,7.293-3.318,15.828-9.057,16.83c-19.053,3.328-27.317,1.922-27.317,19.844v43.91H375v-43.91
					C375,414.41,366.734,415.816,347.682,412.488z"/>
				<path fill="#FFE2A1" d="M338.643,395.803c7.191-5.068,13.686-15.98,13.686-26.508c0-16.871-9.627-24.539-21.494-24.539
					c-11.876,0-21.499,7.668-21.499,24.539c0,9.594,6.464,21.014,13.7,26.363C328.518,399.627,333.349,399.586,338.643,395.803z"/>
				<path fill="none" stroke="#545554" stroke-width="0.4807" stroke-miterlimit="10" d="M311.645,412.971"/>
				<path fill="none" d="M347.682,412.488c-5.703-0.994-8.06-9.426-9.039-16.686c7.191-5.068,13.686-15.98,13.686-26.508
					c0-16.871-9.627-24.539-21.494-24.539c-11.876,0-21.499,7.668-21.499,24.539c0,9.594,6.464,21.014,13.7,26.363
					c-0.963,7.293-3.318,15.828-9.057,16.83c-19.053,3.328-27.317,1.922-27.317,19.844h41.26h0.265h5.289h0.263H375
					C375,414.41,366.734,415.816,347.682,412.488z"/>
				<g>
					<path fill="#231F20" d="M333.58,333.357c-2.616,0.629-6.105,2.268-6.105,2.268s-4.857-1.424-9.362-0.299
						c-5.917,1.479-20.491,5.555-20.491,30.908c0,19.063,4.263,28.477,7.944,39.092c6.079,0.457,12.095-0.189,15.257,0
						c1.179-2.971,1.898-6.49,2.33-9.762c0,0-0.004-0.002-0.004-0.006c-0.415-0.305-0.821-0.633-1.227-0.977
						c-0.147-0.127-0.294-0.262-0.445-0.395l0,0c-0.27-0.236-0.543-0.482-0.813-0.74l0,0c-0.166-0.158-0.329-0.326-0.496-0.488
						v-0.004c-0.236-0.23-0.471-0.473-0.705-0.723l0,0c-0.172-0.186-0.344-0.375-0.52-0.568c-0.213-0.242-0.431-0.484-0.64-0.738
						l0,0c-0.179-0.209-0.354-0.416-0.525-0.631l0,0c-0.201-0.25-0.398-0.506-0.592-0.762v-0.002
						c-0.175-0.223-0.352-0.449-0.519-0.682l0,0c-0.191-0.264-0.379-0.533-0.567-0.803c0-0.002,0-0.002,0-0.002
						c-0.412-0.592-0.805-1.197-1.189-1.82c-0.056-0.088-0.117-0.174-0.168-0.262l0,0c-0.109-0.188-0.222-0.379-0.328-0.57
						c-0.191-0.316-0.368-0.637-0.548-0.959c-0.127-0.24-0.261-0.48-0.387-0.725c-0.194-0.361-0.372-0.729-0.553-1.1
						c-0.096-0.188-0.18-0.369-0.267-0.557c-0.208-0.449-0.406-0.898-0.602-1.352c-0.07-0.174-0.138-0.352-0.211-0.529
						c-0.192-0.475-0.374-0.949-0.546-1.43c-0.051-0.137-0.092-0.275-0.135-0.412c-0.165-0.475-0.321-0.949-0.459-1.426
						c-0.025-0.09-0.052-0.176-0.076-0.262c-0.146-0.52-0.277-1.041-0.396-1.559c-0.027-0.109-0.054-0.221-0.076-0.328
						c-0.118-0.527-0.214-1.053-0.302-1.576c-0.016-0.109-0.027-0.215-0.048-0.326c-0.078-0.531-0.142-1.061-0.187-1.586
						c-0.007-0.082-0.009-0.162-0.017-0.244c-0.047-0.557-0.066-1.107-0.066-1.652c0-1.949,0.136-3.771,0.379-5.479
						c0.879-3.918,11.315-15.299,11.315-15.299s9.598,18.891,30.668,15.537c0.305-0.045,0.25,2.473,0.261,2.545
						c0,0.004,0,0.004,0,0.01c0.055,0.869,0.091,1.762,0.091,2.686c0,10.457-6.453,21.301-13.594,26.334
						c0.396,2.961,1.036,6.109,2.027,8.871c3.972,0.215,7.287,0.75,14.669,0.75c2.861-6.689,5.14-12.518,7.669-27.143
						C368.685,345.393,355.376,328.107,333.58,333.357z"/>
				</g>
				<path fill="#00B3E3" d="M348.667,412.656c-7.878,9.83-25.03,12.881-35.671,0c-18.349,3.115-26.335,2.07-26.335,19.676v43.91H375
					v-43.91C375,414.727,367.016,415.768,348.667,412.656z"/>
			</g>
			<path fill="#FFFFFF" d="M341.298,427.053l-10.631-4.92l-10.59,4.92l-7.562-14.662c1.153-0.418,2.102-1.402,2.896-2.725
				c15.263,11.068,15.263,11.068,15.263,11.068s0,0,15.293-11.008c0.794,1.305,1.741,2.273,2.891,2.678L341.298,427.053z"/>
		</g>
	</g>
	<g>
		<g>
			<g>
				<path fill="#FFD5A1" d="M218.499,412.49c5.699-0.996,8.055-9.428,9.032-16.688c-7.189-5.066-13.685-15.98-13.685-26.506
					c0-16.873,9.629-24.541,21.5-24.541c11.873,0,21.494,7.668,21.494,24.541c0,9.592-6.458,21.012-13.699,26.361
					c0.963,7.293,3.316,15.828,9.052,16.832c19.055,3.328,27.32,1.92,27.32,19.842v43.91h-88.335v-43.91
					C191.179,414.41,199.443,415.818,218.499,412.49z"/>
				<path fill="#FFE0B2" d="M227.531,395.803c-7.189-5.066-13.685-15.98-13.685-26.506c0-16.873,9.629-24.541,21.5-24.541
					c11.873,0,21.494,7.668,21.494,24.541c0,9.592-6.458,21.012-13.699,26.361C237.656,399.631,232.83,399.586,227.531,395.803z"/>
				<path fill="none" d="M218.499,412.49c5.699-0.994,8.055-9.428,9.032-16.688c-7.189-5.066-13.685-15.98-13.685-26.506
					c0-16.873,9.629-24.541,21.5-24.541c11.873,0,21.494,7.668,21.494,24.541c0,9.592-6.458,21.012-13.699,26.361
					c0.966,7.293,3.316,15.828,9.052,16.832c19.055,3.328,27.32,1.92,27.32,19.842h-41.258h-0.265h-5.294h-0.263h-41.256
					C191.179,414.41,199.443,415.818,218.499,412.49z"/>
				<path fill="#1CCFC9" d="M217.693,412.629c2.994,6.063,16.453,29.012,16.453,29.012s13.689-23.104,16.61-29.344
					c0.55,0.057,1.043,0.123,1.437,0.193c19.055,3.328,27.32,1.92,27.32,19.842v43.91h-88.335v-43.91
					C191.179,414.67,199.217,415.777,217.693,412.629z"/>
				<path fill="#3B2314" d="M226.882,335.238c0.042-0.014,0.079-0.023,0.116-0.035c0.348-0.102,0.7-0.199,1.049-0.289
					c0.259-0.068,0.512-0.127,0.77-0.189c0.159-0.035,0.316-0.068,0.469-0.105c0.381-0.082,0.759-0.156,1.135-0.223
					c0.126-0.025,0.25-0.047,0.374-0.068c0.228-0.037,0.451-0.07,0.673-0.104c0.3-0.045,0.602-0.082,0.895-0.115
					c0.164-0.016,0.331-0.033,0.492-0.051c0.35-0.031,0.701-0.059,1.044-0.078c0.084-0.006,0.168-0.01,0.249-0.014
					c0.408-0.02,0.813-0.029,1.214-0.029c2.188,0,3.88,1.428,3.88,1.428s2.587-0.611,5.759,0.426
					c5.038,1.652,19.228,9.701,19.228,31.754c0,21.275-14.816,48.633-26.189,57.57c3.604-5.914,6.536-11.313,8.717-16.732
					c-2.055-3.322-3.148-8.156-3.728-12.543c3.087-2.283,6.027-5.693,8.364-9.588c3.693-18.895-0.249-29.443-13.785-40.363
					c-4.772,9.955-16.518,18.027-22.975,18.486c-0.258,1.727-0.396,3.578-0.396,5.564c0,10.342,6.379,21.066,13.443,26.047
					c-0.96,7.135-3.274,15.418-8.875,16.396c-2.785,0.484-5.326,0.881-7.65,1.258c0.569-1.201,1.107-2.488,1.578-3.879
					c3.314-9.746-3.183-16.635-6.239-32.387C201.769,353.045,212.461,339.504,226.882,335.238z"/>
			</g>
		</g>
	</g>
	<g>
		<g>
			<g>
				<path fill="#FFD5A1" d="M32.32,412.49c5.702-0.996,8.062-9.428,9.037-16.688c-7.188-5.066-13.687-15.98-13.687-26.506
					c0-16.873,9.628-24.541,21.5-24.541c11.874,0,21.496,7.668,21.496,24.541c0,9.592-6.46,21.012-13.7,26.361
					c0.962,7.293,3.318,15.828,9.052,16.832c19.058,3.328,27.322,1.92,27.322,19.842v43.91H5v-43.91
					C5,414.41,13.268,415.818,32.32,412.49z"/>
				<path fill="#FFE0B2" d="M41.357,395.803c-7.188-5.066-13.687-15.98-13.687-26.506c0-16.873,9.628-24.541,21.5-24.541
					c11.874,0,21.496,7.668,21.496,24.541c0,9.592-6.46,21.012-13.7,26.361C51.485,399.631,46.654,399.586,41.357,395.803z"/>
				<path fill="none" d="M32.32,412.49c5.702-0.994,8.062-9.428,9.037-16.688c-7.188-5.066-13.687-15.98-13.687-26.506
					c0-16.873,9.628-24.541,21.5-24.541c11.874,0,21.496,7.668,21.496,24.541c0,9.592-6.46,21.012-13.7,26.361
					c0.962,7.293,3.318,15.828,9.052,16.832c19.058,3.328,27.322,1.92,27.322,19.842h-41.26h-0.267h-5.286h-0.27H5
					C5,414.41,13.268,415.818,32.32,412.49z"/>
				<path fill="#1CCFC9" d="M31.517,412.629c2.994,6.063,16.455,29.012,16.455,29.012s13.685-23.104,16.612-29.344
					c0.548,0.057,1.036,0.123,1.435,0.193c19.058,3.328,27.322,1.92,27.322,19.842v43.91H5v-43.91
					C5,414.67,13.044,415.777,31.517,412.629z"/>
				<path fill="#3B2314" d="M40.706,335.238c0.034-0.014,0.076-0.023,0.116-0.035c0.351-0.102,0.698-0.199,1.049-0.289
					c0.258-0.068,0.512-0.127,0.768-0.189c0.158-0.035,0.318-0.068,0.472-0.105c0.384-0.082,0.758-0.156,1.133-0.223
					c0.127-0.025,0.25-0.047,0.38-0.068c0.222-0.037,0.445-0.07,0.677-0.104c0.295-0.045,0.588-0.082,0.885-0.115
					c0.166-0.016,0.332-0.033,0.496-0.051c0.349-0.031,0.698-0.059,1.047-0.078c0.078-0.006,0.16-0.01,0.244-0.014
					c0.408-0.02,0.811-0.029,1.213-0.029c2.189,0,3.878,1.428,3.878,1.428s2.588-0.611,5.761,0.426
					c5.042,1.652,19.23,9.701,19.23,31.754c0,21.275-14.821,48.633-26.191,57.57c3.607-5.914,6.527-11.313,8.716-16.732
					c-2.051-3.322-3.147-8.156-3.728-12.543c3.087-2.283,6.03-5.693,8.368-9.588c3.692-18.895-0.255-29.443-13.789-40.363
					c-4.771,9.955-16.521,18.027-22.973,18.486c-0.26,1.727-0.398,3.578-0.398,5.564c0,10.342,6.381,21.066,13.446,26.047
					c-0.957,7.135-3.281,15.418-8.874,16.396c-2.785,0.484-5.331,0.881-7.654,1.258c0.572-1.201,1.108-2.488,1.584-3.879
					c3.313-9.746-3.187-16.635-6.243-32.387C15.597,353.045,26.285,339.504,40.706,335.238z"/>
			</g>
		</g>
	</g>
	<g>
		<g>
			<g>
				<path fill="#F9D690" d="M159.542,412.488c-5.7-0.994-8.06-9.426-9.032-16.686c7.19-5.068,13.684-15.98,13.684-26.508
					c0-16.871-9.625-24.539-21.498-24.539c-11.869,0-21.497,7.668-21.497,24.539c0,9.594,6.467,21.014,13.701,26.363
					c-0.962,7.293-3.315,15.828-9.051,16.83c-19.057,3.328-27.321,1.922-27.321,19.844v43.91h88.34v-43.91
					C186.867,414.41,178.603,415.816,159.542,412.488z"/>
				<path fill="#FFE2A1" d="M150.51,395.803c7.19-5.068,13.684-15.98,13.684-26.508c0-16.871-9.625-24.539-21.498-24.539
					c-11.869,0-21.497,7.668-21.497,24.539c0,9.594,6.467,21.014,13.701,26.363C140.387,399.627,145.213,399.586,150.51,395.803z"/>
				<path fill="none" stroke="#545554" stroke-width="0.4807" stroke-miterlimit="10" d="M123.509,412.971"/>
				<path fill="none" d="M159.542,412.488c-5.7-0.994-8.06-9.426-9.032-16.686c7.19-5.068,13.684-15.98,13.684-26.508
					c0-16.871-9.625-24.539-21.498-24.539c-11.869,0-21.497,7.668-21.497,24.539c0,9.594,6.467,21.014,13.701,26.363
					c-0.962,7.293-3.315,15.828-9.051,16.83c-19.057,3.328-27.321,1.922-27.321,19.844h41.262h0.263h5.288h0.268h41.26
					C186.867,414.41,178.603,415.816,159.542,412.488z"/>
				<g>
					<path fill="#724524" d="M145.449,333.357c-2.617,0.629-6.111,2.268-6.111,2.268s-4.854-1.424-9.366-0.299
						c-5.909,1.479-20.488,5.555-20.488,30.908c0,19.063,4.269,28.477,7.945,39.092c6.08,0.457,12.096-0.189,15.258,0
						c1.178-2.971,1.902-6.49,2.33-9.762c0,0-0.003-0.002-0.003-0.006c-0.412-0.305-0.82-0.633-1.228-0.977
						c-0.146-0.127-0.297-0.262-0.441-0.395l0,0c-0.274-0.236-0.545-0.482-0.814-0.74l0,0c-0.171-0.158-0.331-0.326-0.495-0.488
						v-0.004c-0.238-0.23-0.472-0.473-0.706-0.723l0,0c-0.17-0.186-0.345-0.375-0.517-0.568c-0.216-0.242-0.431-0.484-0.641-0.738
						l0,0c-0.179-0.209-0.356-0.416-0.525-0.631l0,0c-0.203-0.25-0.399-0.506-0.6-0.762v-0.002
						c-0.174-0.223-0.341-0.449-0.514-0.682l0,0c-0.19-0.264-0.38-0.533-0.567-0.803c0-0.002,0-0.002,0-0.002
						c-0.411-0.592-0.81-1.197-1.19-1.82c-0.049-0.088-0.108-0.174-0.165-0.262l0,0c-0.118-0.188-0.226-0.379-0.334-0.57
						c-0.184-0.316-0.363-0.637-0.541-0.959c-0.136-0.24-0.264-0.48-0.387-0.725c-0.195-0.361-0.377-0.729-0.553-1.1
						c-0.093-0.188-0.185-0.369-0.271-0.557c-0.209-0.449-0.406-0.898-0.597-1.352c-0.075-0.174-0.143-0.352-0.213-0.529
						c-0.193-0.475-0.374-0.949-0.548-1.43c-0.046-0.137-0.092-0.275-0.136-0.412c-0.168-0.475-0.32-0.949-0.458-1.426
						c-0.025-0.09-0.053-0.176-0.074-0.262c-0.147-0.52-0.276-1.041-0.4-1.559c-0.022-0.109-0.055-0.221-0.076-0.328
						c-0.115-0.527-0.215-1.053-0.3-1.576c-0.014-0.109-0.032-0.215-0.046-0.326c-0.078-0.531-0.143-1.061-0.187-1.586
						c-0.008-0.082-0.011-0.162-0.019-0.244c-0.042-0.557-0.065-1.107-0.065-1.652c0-1.949,0.135-3.771,0.381-5.479
						c0.882-3.918,11.31-15.299,11.31-15.299s9.599,18.891,30.675,15.537c0.304-0.045,0.249,2.473,0.256,2.545
						c0,0.004,0,0.004,0,0.01c0.056,0.869,0.092,1.762,0.092,2.686c0,10.457-6.448,21.301-13.593,26.334
						c0.402,2.961,1.035,6.109,2.028,8.871c3.967,0.215,7.29,0.75,14.669,0.75c2.865-6.689,5.144-12.518,7.668-27.143
						C180.552,345.393,167.24,328.107,145.449,333.357z"/>
				</g>
				<path fill="#E70095" d="M160.528,412.656c-7.873,9.83-25.03,12.881-35.669,0c-18.347,3.115-26.332,2.07-26.332,19.676v43.91
					h88.34v-43.91C186.867,414.727,178.88,415.768,160.528,412.656z"/>
			</g>
			<path fill="#FFFFFF" d="M153.162,427.053l-10.629-4.92l-10.588,4.92l-7.562-14.662c1.145-0.418,2.098-1.402,2.895-2.725
				c15.257,11.068,15.257,11.068,15.257,11.068s0,0,15.296-11.008c0.796,1.305,1.738,2.273,2.891,2.678L153.162,427.053z"/>
		</g>
	</g>
</g>
</svg>
